PathFileType	4	(X/Y/Z)	 2.2Hz3min.trc
DataRate	CameraRate	NumFrames	NumMarkers	Units	OrigDataRate	OrigDataStartFrame	OrigNumFrames
200	200	9	43	m	200	876	1000
Frame#	Time	C7			LSH			RSH			MAN			RASI			LASI			HIPR			HIPL			RPSI			LPSI			COX			RTHI1			RTHI2			RTHI3			RTHI4			RLKN			RMKN			RSHA1			RSHA2			RSHA3			RSHA4			RLMAL			RMMAL			RHEEL			RMET5			RMET1			RTOE			LTHI1			LTHI2			LTHI3			LTHI4			LLKN			LMKN			LSHA1			LSHA2			LSHA3			LSHA4			LLMAL			LMMAL			LHEEL			LMET5			LMET1			LTOE			
		X1	Y1	Z1	X2	Y2	Z2	X3	Y3	Z3	X4	Y4	Z4	X5	Y5	Z5	X6	Y6	Z6	X7	Y7	Z7	X8	Y8	Z8	X9	Y9	Z9	X10	Y10	Z10	X11	Y11	Z11	X12	Y12	Z12	X13	Y13	Z13	X14	Y14	Z14	X15	Y15	Z15	X16	Y16	Z16	X17	Y17	Z17	X18	Y18	Z18	X19	Y19	Z19	X20	Y20	Z20	X21	Y21	Z21	X22	Y22	Z22	X23	Y23	Z23	X24	Y24	Z24	X25	Y25	Z25	X26	Y26	Z26	X27	Y27	Z27	X28	Y28	Z28	X29	Y29	Z29	X30	Y30	Z30	X31	Y31	Z31	X32	Y32	Z32	X33	Y33	Z33	X34	Y34	Z34	X35	Y35	Z35	X36	Y36	Z36	X37	Y37	Z37	X38	Y38	Z38	X39	Y39	Z39	X40	Y40	Z40	X41	Y41	Z41	X42	Y42	Z42	X43	Y43	Z43	
876	4.3800	-0.250289	1.291868	-0.536434	-0.160082	1.273430	-0.684601	-0.193289	1.262655	-0.366873	-0.125273	1.223071	-0.521356	-0.158974	0.784261	-0.406394	-0.135865	0.786827	-0.639769	-0.219625	0.859333	-0.382467	-0.197338	0.840799	-0.680261	-0.314666	0.847142	-0.488126	-0.308670	0.842684	-0.572666	-0.314299	0.845535	-0.535191	-0.260807	0.616896	-0.343401	-0.230634	0.567803	-0.330069	-0.176009	0.597572	-0.315666	-0.198414	0.653756	-0.328611	-0.161858	0.397938	-0.315246	-0.134172	0.372969	-0.437858	-0.271001	0.304523	-0.309764	-0.289038	0.268925	-0.325990	-0.222263	0.277083	-0.301078	-0.236374	0.241416	-0.311503	-0.344890	0.085877	-0.358274	-0.313599	0.092310	-0.435223	-0.399112	0.080915	-0.408118	-0.262283	0.030109	-0.316086	-0.210944	0.041443	-0.381569	-0.188487	0.033341	-0.374493	-0.208082	0.612498	-0.725173	-0.176917	0.559911	-0.734071	-0.117899	0.587632	-0.730723	-0.141964	0.642210	-0.722574	-0.118400	0.390079	-0.743826	-0.112180	0.368150	-0.621082	-0.241047	0.280375	-0.766833	-0.262414	0.245938	-0.760963	-0.207880	0.218527	-0.761011	-0.191471	0.259098	-0.768043	-0.306176	0.095513	-0.753115	-0.298873	0.108531	-0.670423	-0.378169	0.091801	-0.713116	-0.232573	0.034650	-0.764776	-0.198034	0.044822	-0.690988	-0.173877	0.034224	-0.690397	
877	4.3850	-0.250156	1.291907	-0.536521	-0.160265	1.273065	-0.684915	-0.193308	1.262330	-0.366811	-0.125225	1.223082	-0.521461	-0.159000	0.785044	-0.406234	-0.136083	0.787329	-0.639818	-0.219751	0.860174	-0.382533	-0.197658	0.841373	-0.680253	-0.314748	0.847504	-0.488151	-0.308948	0.842893	-0.572582	-0.314465	0.845747	-0.535118	-0.260447	0.617278	-0.343490	-0.230193	0.568369	-0.329952	-0.175613	0.598279	-0.315664	-0.198215	0.654382	-0.328727	-0.160721	0.398481	-0.315087	-0.133288	0.373371	-0.437945	-0.270143	0.305317	-0.309699	-0.288410	0.269788	-0.325843	-0.221522	0.277690	-0.301110	-0.235821	0.242086	-0.311522	-0.344481	0.086340	-0.357893	-0.313342	0.092754	-0.435047	-0.398856	0.081511	-0.407884	-0.262101	0.030185	-0.316057	-0.210802	0.041420	-0.381550	-0.188357	0.033332	-0.374495	-0.207936	0.612638	-0.725037	-0.176514	0.560213	-0.733926	-0.117640	0.588186	-0.730374	-0.141961	0.642641	-0.722220	-0.117345	0.390435	-0.743581	-0.111254	0.368964	-0.620617	-0.240604	0.281056	-0.766550	-0.262032	0.246676	-0.760662	-0.207551	0.219149	-0.760891	-0.191068	0.259681	-0.767927	-0.305831	0.095971	-0.753084	-0.298459	0.108859	-0.670373	-0.377823	0.092382	-0.713069	-0.232446	0.034742	-0.764725	-0.197925	0.044779	-0.690959	-0.173782	0.034226	-0.690393	
878	4.3900	-0.250105	1.292552	-0.536623	-0.160483	1.273398	-0.685199	-0.193318	1.262679	-0.366756	-0.125222	1.223710	-0.521580	-0.158791	0.786601	-0.406215	-0.136161	0.788574	-0.639875	-0.219655	0.861710	-0.382624	-0.197873	0.842529	-0.680213	-0.314687	0.848306	-0.488092	-0.309116	0.843572	-0.572437	-0.314500	0.846439	-0.534990	-0.260006	0.618177	-0.343608	-0.229763	0.569402	-0.329864	-0.175177	0.599415	-0.315720	-0.197924	0.655457	-0.328890	-0.159770	0.399444	-0.315056	-0.132678	0.374159	-0.438215	-0.269424	0.306404	-0.309651	-0.287908	0.270936	-0.325669	-0.220881	0.278647	-0.301180	-0.235355	0.243083	-0.311551	-0.344043	0.086922	-0.357438	-0.313080	0.093304	-0.434790	-0.398576	0.082234	-0.407514	-0.261895	0.030264	-0.315991	-0.210668	0.041383	-0.381529	-0.188239	0.033317	-0.374514	-0.207821	0.613290	-0.724876	-0.176168	0.561008	-0.733752	-0.117421	0.589196	-0.729980	-0.141972	0.643550	-0.721834	-0.116474	0.391188	-0.743284	-0.110276	0.369993	-0.620138	-0.240271	0.282020	-0.766314	-0.261721	0.247666	-0.760416	-0.207249	0.220076	-0.760766	-0.190746	0.260615	-0.767811	-0.305361	0.096586	-0.753125	-0.297989	0.109364	-0.670402	-0.377378	0.093169	-0.713157	-0.232282	0.034860	-0.764687	-0.197817	0.044739	-0.690924	-0.173709	0.034237	-0.690366	
879	4.3950	-0.250169	1.293846	-0.536727	-0.160724	1.274435	-0.685441	-0.193304	1.263695	-0.366718	-0.125263	1.224948	-0.521712	-0.158351	0.788819	-0.406319	-0.136098	0.790478	-0.639939	-0.219352	0.863800	-0.382709	-0.197994	0.844190	-0.680142	-0.314478	0.849554	-0.487938	-0.309142	0.844721	-0.572212	-0.314391	0.847614	-0.534801	-0.259550	0.619612	-0.343701	-0.229382	0.570856	-0.329819	-0.174722	0.600932	-0.315842	-0.197532	0.656948	-0.329087	-0.159110	0.400798	-0.315142	-0.132398	0.375327	-0.438662	-0.268905	0.307741	-0.309616	-0.287561	0.272296	-0.325515	-0.220401	0.279924	-0.301279	-0.235022	0.244363	-0.311593	-0.343606	0.087607	-0.356927	-0.312830	0.093940	-0.434459	-0.398282	0.083049	-0.407005	-0.261661	0.030356	-0.315918	-0.210554	0.041345	-0.381519	-0.188142	0.033291	-0.374559	-0.207736	0.614480	-0.724661	-0.175915	0.562310	-0.733520	-0.117257	0.590643	-0.729551	-0.141972	0.644928	-0.721425	-0.115880	0.392341	-0.742942	-0.109353	0.371163	-0.619663	-0.240060	0.283231	-0.766126	-0.261483	0.248873	-0.760220	-0.206989	0.221302	-0.760636	-0.190515	0.261856	-0.767688	-0.304779	0.097338	-0.753237	-0.297484	0.110035	-0.670505	-0.376843	0.094124	-0.713372	-0.232079	0.035016	-0.764664	-0.197727	0.044690	-0.690887	-0.173657	0.034242	-0.690305	
880	4.4000	-0.250346	1.295791	-0.536842	-0.160976	1.276168	-0.685631	-0.193282	1.265364	-0.366715	-0.125363	1.226777	-0.521856	-0.157692	0.791582	-0.406508	-0.135905	0.792963	-0.640011	-0.218851	0.866341	-0.382764	-0.198038	0.846303	-0.680034	-0.314110	0.851264	-0.487684	-0.308993	0.846345	-0.571921	-0.314130	0.849278	-0.534546	-0.259083	0.621586	-0.343764	-0.229075	0.572746	-0.329831	-0.174265	0.602780	-0.316041	-0.197020	0.658826	-0.329300	-0.158849	0.402522	-0.315339	-0.132499	0.376866	-0.439265	-0.268658	0.309283	-0.309607	-0.287412	0.273832	-0.325380	-0.220152	0.281487	-0.301410	-0.234847	0.245909	-0.311638	-0.343180	0.088383	-0.356382	-0.312627	0.094634	-0.434066	-0.397982	0.083943	-0.406356	-0.261406	0.030448	-0.315821	-0.210479	0.041325	-0.381532	-0.188066	0.033269	-0.374615	-0.207663	0.616236	-0.724374	-0.175762	0.564119	-0.733220	-0.117149	0.592498	-0.729109	-0.141927	0.646756	-0.721000	-0.115639	0.393922	-0.742560	-0.108594	0.372472	-0.619206	-0.239975	0.284650	-0.765981	-0.261329	0.250256	-0.760081	-0.206779	0.222786	-0.760492	-0.190385	0.263370	-0.767543	-0.304101	0.098221	-0.753421	-0.296936	0.110861	-0.670682	-0.376222	0.095237	-0.713709	-0.231822	0.035218	-0.764650	-0.197622	0.044672	-0.690831	-0.173631	0.034248	-0.690228	
881	4.4050	-0.250633	1.298350	-0.536978	-0.161253	1.278536	-0.685775	-0.193256	1.267665	-0.366755	-0.125537	1.229182	-0.522012	-0.156826	0.794801	-0.406752	-0.135572	0.795974	-0.640097	-0.218161	0.869267	-0.382771	-0.198013	0.848844	-0.679897	-0.313580	0.853444	-0.487333	-0.308665	0.848444	-0.571557	-0.313717	0.851437	-0.534227	-0.258604	0.624081	-0.343792	-0.228848	0.575062	-0.329910	-0.173814	0.604931	-0.316322	-0.196378	0.661065	-0.329520	-0.159053	0.404553	-0.315682	-0.133015	0.378759	-0.439994	-0.268730	0.310991	-0.309648	-0.287473	0.275493	-0.325323	-0.220173	0.283311	-0.301606	-0.234845	0.247671	-0.311689	-0.342781	0.089211	-0.355870	-0.312447	0.095400	-0.433606	-0.397672	0.084926	-0.405579	-0.261122	0.030568	-0.315700	-0.210416	0.041321	-0.381552	-0.188009	0.033286	-0.374705	-0.207587	0.618545	-0.724033	-0.175712	0.566412	-0.732859	-0.117088	0.594728	-0.728655	-0.141822	0.649006	-0.720568	-0.115802	0.395949	-0.742140	-0.108111	0.373962	-0.618778	-0.240018	0.286243	-0.765875	-0.261264	0.251784	-0.759996	-0.206623	0.224487	-0.760325	-0.190360	0.265118	-0.767367	-0.303338	0.099219	-0.753659	-0.296342	0.111803	-0.670921	-0.375520	0.096492	-0.714144	-0.231511	0.035461	-0.764656	-0.197514	0.044653	-0.690780	-0.173619	0.034243	-0.690134	
882	4.4100	-0.251067	1.301502	-0.537164	-0.161563	1.281501	-0.685867	-0.193252	1.270571	-0.366848	-0.125793	1.232149	-0.522181	-0.155779	0.798412	-0.407022	-0.135105	0.799461	-0.640197	-0.217306	0.872528	-0.382722	-0.197917	0.851807	-0.679738	-0.312889	0.856098	-0.486897	-0.308163	0.851025	-0.571125	-0.313145	0.854084	-0.533827	-0.258110	0.627073	-0.343774	-0.228683	0.577779	-0.330053	-0.173361	0.607361	-0.316683	-0.195608	0.663643	-0.329733	-0.159757	0.406865	-0.316164	-0.133986	0.380982	-0.440815	-0.269152	0.312841	-0.309755	-0.287758	0.277239	-0.325367	-0.220478	0.285352	-0.301863	-0.235054	0.249626	-0.311781	-0.342417	0.090100	-0.355370	-0.312290	0.096230	-0.433092	-0.397366	0.085976	-0.404714	-0.260868	0.030711	-0.315608	-0.210391	0.041283	-0.381569	-0.187992	0.033265	-0.374804	-0.207503	0.621357	-0.723656	-0.175754	0.569146	-0.732451	-0.117062	0.597299	-0.728188	-0.141651	0.651647	-0.720143	-0.116402	0.398434	-0.741681	-0.108002	0.375726	-0.618381	-0.240186	0.287984	-0.765802	-0.261290	0.253430	-0.759959	-0.206526	0.226370	-0.760120	-0.190439	0.267067	-0.767152	-0.302495	0.100326	-0.753931	-0.295714	0.112833	-0.671197	-0.374733	0.097882	-0.714641	-0.231139	0.035746	-0.764656	-0.197398	0.044630	-0.690728	-0.173616	0.034243	-0.690032	
883	4.4150	-0.251575	1.305186	-0.537340	-0.161921	1.285026	-0.685909	-0.193297	1.274048	-0.366994	-0.126140	1.235654	-0.522364	-0.154569	0.802369	-0.407301	-0.134512	0.803383	-0.640308	-0.216295	0.876111	-0.382621	-0.197726	0.855219	-0.679563	-0.312033	0.859218	-0.486390	-0.307500	0.854082	-0.570641	-0.312419	0.857185	-0.533363	-0.257601	0.630525	-0.343699	-0.228571	0.580861	-0.330258	-0.172895	0.610046	-0.317106	-0.194721	0.666536	-0.329925	-0.160958	0.409418	-0.316802	-0.135443	0.383520	-0.441695	-0.269924	0.314812	-0.309926	-0.288287	0.279055	-0.325490	-0.221091	0.287605	-0.302182	-0.235482	0.251763	-0.311920	-0.342060	0.091056	-0.354868	-0.312174	0.097150	-0.432544	-0.397045	0.087121	-0.403785	-0.260599	0.030852	-0.315505	-0.210387	0.041257	-0.381606	-0.188001	0.033252	-0.374919	-0.207400	0.624633	-0.723266	-0.175863	0.572291	-0.732007	-0.117061	0.600193	-0.727727	-0.141422	0.654645	-0.719739	-0.117434	0.401365	-0.741189	-0.108348	0.377845	-0.618013	-0.240478	0.289851	-0.765749	-0.261400	0.255177	-0.759953	-0.206495	0.228437	-0.759885	-0.190621	0.269196	-0.766890	-0.301582	0.101540	-0.754219	-0.295049	0.113942	-0.671485	-0.373855	0.099400	-0.715172	-0.230718	0.036080	-0.764647	-0.197273	0.044597	-0.690675	-0.173624	0.034230	-0.689930	
884	4.4200	-0.252145	1.309309	-0.537506	-0.162351	1.289062	-0.685907	-0.193432	1.278061	-0.367187	-0.126583	1.239657	-0.522556	-0.153223	0.806637	-0.407573	-0.133798	0.807710	-0.640412	-0.215131	0.880025	-0.382479	-0.197415	0.859096	-0.679377	-0.311017	0.862789	-0.485834	-0.306685	0.857602	-0.570125	-0.311544	0.860734	-0.532846	-0.257050	0.634388	-0.343589	-0.228498	0.584302	-0.330517	-0.172423	0.612966	-0.317578	-0.193735	0.669716	-0.330094	-0.162628	0.412213	-0.317564	-0.137406	0.386344	-0.442605	-0.271042	0.316897	-0.310176	-0.289099	0.280932	-0.325676	-0.222000	0.290058	-0.302561	-0.236124	0.254077	-0.312109	-0.341646	0.092081	-0.354316	-0.312064	0.098167	-0.431973	-0.396697	0.088389	-0.402825	-0.260278	0.031023	-0.315380	-0.210392	0.041236	-0.381648	-0.188024	0.033247	-0.375037	-0.207283	0.628335	-0.722881	-0.176033	0.575811	-0.731560	-0.117080	0.603385	-0.727271	-0.141142	0.657982	-0.719356	-0.118872	0.404697	-0.740660	-0.109205	0.380419	-0.617663	-0.240893	0.291844	-0.765709	-0.261601	0.257014	-0.759958	-0.206521	0.230674	-0.759609	-0.190904	0.271508	-0.766585	-0.300597	0.102867	-0.754505	-0.294333	0.115138	-0.671767	-0.372881	0.101053	-0.715698	-0.230251	0.036430	-0.764615	-0.197130	0.044557	-0.690621	-0.173636	0.034222	-0.689825	
